<svg id="visual" viewBox="0 0 960 540" width="960" height="540" xmlns="http://www.w3.org/2000/svg" xmlns:xlink="http://www.w3.org/1999/xlink" version="1.1"><path d="M0 98L87 55L175 82L262 104L349 104L436 147L524 158L611 98L698 77L785 77L873 152L960 109L960 0L873 0L785 0L698 0L611 0L524 0L436 0L349 0L262 0L175 0L87 0L0 0Z" fill="#b68438"></path><path d="M0 109L87 66L175 93L262 131L349 125L436 174L524 179L611 125L698 93L785 87L873 168L960 120L960 107L873 150L785 75L698 75L611 96L524 156L436 145L349 102L262 102L175 80L87 53L0 96Z" fill="#a38637"></path><path d="M0 147L87 93L175 114L262 152L349 195L436 201L524 260L611 190L698 163L785 147L873 190L960 158L960 118L873 166L785 85L698 91L611 123L524 177L436 172L349 123L262 129L175 91L87 64L0 107Z" fill="#90873a"></path><path d="M0 212L87 120L175 168L262 212L349 228L436 244L524 330L611 228L698 206L785 206L873 244L960 217L960 156L873 188L785 145L698 161L611 188L524 258L436 199L349 193L262 150L175 112L87 91L0 145Z" fill="#7e8740"></path><path d="M0 239L87 158L175 185L262 233L349 266L436 282L524 347L611 266L698 244L785 239L873 276L960 233L960 215L873 242L785 204L698 204L611 226L524 328L436 242L349 226L262 210L175 166L87 118L0 210Z" fill="#6d8647"></path><path d="M0 260L87 185L175 217L262 255L349 303L436 298L524 368L611 287L698 260L785 271L873 314L960 249L960 231L873 274L785 237L698 242L611 264L524 345L436 280L349 264L262 231L175 183L87 156L0 237Z" fill="#5e8350"></path><path d="M0 282L87 233L175 271L262 293L349 336L436 336L524 390L611 314L698 282L785 293L873 341L960 287L960 247L873 312L785 269L698 258L611 285L524 366L436 296L349 301L262 253L175 215L87 183L0 258Z" fill="#518058"></path><path d="M0 309L87 260L175 303L262 325L349 352L436 368L524 411L611 336L698 314L785 303L873 357L960 320L960 285L873 339L785 291L698 280L611 312L524 388L436 334L349 334L262 291L175 269L87 231L0 280Z" fill="#467d60"></path><path d="M0 330L87 298L175 325L262 363L349 368L436 395L524 422L611 357L698 347L785 341L873 390L960 352L960 318L873 355L785 301L698 312L611 334L524 409L436 366L349 350L262 323L175 301L87 258L0 307Z" fill="#3f7866"></path><path d="M0 476L87 449L175 492L262 465L349 444L436 471L524 492L611 449L698 476L785 471L873 449L960 465L960 350L873 388L785 339L698 345L611 355L524 420L436 393L349 366L262 361L175 323L87 296L0 328Z" fill="#3b746a"></path><path d="M0 530L87 519L175 525L262 530L349 525L436 530L524 530L611 509L698 514L785 519L873 530L960 519L960 463L873 447L785 469L698 474L611 447L524 490L436 469L349 442L262 463L175 490L87 447L0 474Z" fill="#3c6e6c"></path><path d="M0 541L87 541L175 541L262 541L349 541L436 541L524 541L611 541L698 541L785 541L873 541L960 541L960 517L873 528L785 517L698 512L611 507L524 528L436 528L349 523L262 528L175 523L87 517L0 528Z" fill="#40696c"></path></svg>