<svg id="visual" viewBox="0 0 1440 1024" width="1440" height="1024" xmlns="http://www.w3.org/2000/svg" xmlns:xlink="http://www.w3.org/1999/xlink" version="1.1"><rect x="0" y="0" width="1440" height="1024" fill="#ffffff"></rect><defs><linearGradient id="grad1_0" x1="28.9%" y1="0%" x2="100%" y2="100%"><stop offset="21.875%" stop-color="#5c9b9e" stop-opacity="1"></stop><stop offset="78.125%" stop-color="#5c9b9e" stop-opacity="1"></stop></linearGradient></defs><defs><linearGradient id="grad1_1" x1="28.9%" y1="0%" x2="100%" y2="100%"><stop offset="21.875%" stop-color="#5c9b9e" stop-opacity="1"></stop><stop offset="78.125%" stop-color="#78abae" stop-opacity="1"></stop></linearGradient></defs><defs><linearGradient id="grad1_2" x1="28.9%" y1="0%" x2="100%" y2="100%"><stop offset="21.875%" stop-color="#93bcbd" stop-opacity="1"></stop><stop offset="78.125%" stop-color="#78abae" stop-opacity="1"></stop></linearGradient></defs><defs><linearGradient id="grad1_3" x1="28.9%" y1="0%" x2="100%" y2="100%"><stop offset="21.875%" stop-color="#93bcbd" stop-opacity="1"></stop><stop offset="78.125%" stop-color="#aecccd" stop-opacity="1"></stop></linearGradient></defs><defs><linearGradient id="grad1_4" x1="28.9%" y1="0%" x2="100%" y2="100%"><stop offset="21.875%" stop-color="#c9ddde" stop-opacity="1"></stop><stop offset="78.125%" stop-color="#aecccd" stop-opacity="1"></stop></linearGradient></defs><defs><linearGradient id="grad1_5" x1="28.9%" y1="0%" x2="100%" y2="100%"><stop offset="21.875%" stop-color="#c9ddde" stop-opacity="1"></stop><stop offset="78.125%" stop-color="#e4eeee" stop-opacity="1"></stop></linearGradient></defs><defs><linearGradient id="grad1_6" x1="28.9%" y1="0%" x2="100%" y2="100%"><stop offset="21.875%" stop-color="#ffffff" stop-opacity="1"></stop><stop offset="78.125%" stop-color="#e4eeee" stop-opacity="1"></stop></linearGradient></defs><defs><linearGradient id="grad2_0" x1="0%" y1="0%" x2="71.1%" y2="100%"><stop offset="21.875%" stop-color="#5c9b9e" stop-opacity="1"></stop><stop offset="78.125%" stop-color="#5c9b9e" stop-opacity="1"></stop></linearGradient></defs><defs><linearGradient id="grad2_1" x1="0%" y1="0%" x2="71.1%" y2="100%"><stop offset="21.875%" stop-color="#78abae" stop-opacity="1"></stop><stop offset="78.125%" stop-color="#5c9b9e" stop-opacity="1"></stop></linearGradient></defs><defs><linearGradient id="grad2_2" x1="0%" y1="0%" x2="71.1%" y2="100%"><stop offset="21.875%" stop-color="#78abae" stop-opacity="1"></stop><stop offset="78.125%" stop-color="#93bcbd" stop-opacity="1"></stop></linearGradient></defs><defs><linearGradient id="grad2_3" x1="0%" y1="0%" x2="71.1%" y2="100%"><stop offset="21.875%" stop-color="#aecccd" stop-opacity="1"></stop><stop offset="78.125%" stop-color="#93bcbd" stop-opacity="1"></stop></linearGradient></defs><defs><linearGradient id="grad2_4" x1="0%" y1="0%" x2="71.1%" y2="100%"><stop offset="21.875%" stop-color="#aecccd" stop-opacity="1"></stop><stop offset="78.125%" stop-color="#c9ddde" stop-opacity="1"></stop></linearGradient></defs><defs><linearGradient id="grad2_5" x1="0%" y1="0%" x2="71.1%" y2="100%"><stop offset="21.875%" stop-color="#e4eeee" stop-opacity="1"></stop><stop offset="78.125%" stop-color="#c9ddde" stop-opacity="1"></stop></linearGradient></defs><defs><linearGradient id="grad2_6" x1="0%" y1="0%" x2="71.1%" y2="100%"><stop offset="21.875%" stop-color="#e4eeee" stop-opacity="1"></stop><stop offset="78.125%" stop-color="#ffffff" stop-opacity="1"></stop></linearGradient></defs><g transform="translate(1440, 0)"><path d="M0 530.1C-28.4 445.8 -56.7 361.6 -116.8 359.5C-176.9 357.4 -268.6 437.5 -311.6 428.9C-354.5 420.2 -348.7 322.9 -361.6 262.7C-374.6 202.6 -406.3 179.7 -437.5 142.1C-468.7 104.6 -499.4 52.3 -530.1 0L0 0Z" fill="#f1f6f7"></path><path d="M0 454.4C-24.3 382.1 -48.6 309.9 -100.1 308.1C-151.6 306.4 -230.2 375 -267.1 367.6C-303.9 360.2 -298.9 276.7 -310 225.2C-321.1 173.7 -348.2 154.1 -375 121.8C-401.7 89.6 -428 44.8 -454.4 0L0 0Z" fill="#d6e5e6"></path><path d="M0 378.6C-20.3 318.5 -40.5 258.3 -83.4 256.8C-126.3 255.3 -191.9 312.5 -222.6 306.3C-253.2 300.2 -249.1 230.6 -258.3 187.7C-267.5 144.7 -290.2 128.4 -312.5 101.5C-334.8 74.7 -356.7 37.3 -378.6 0L0 0Z" fill="#bcd5d6"></path><path d="M0 302.9C-16.2 254.8 -32.4 206.6 -66.7 205.4C-101.1 204.2 -153.5 250 -178 245.1C-202.6 240.1 -199.3 184.5 -206.6 150.1C-214 115.8 -232.2 102.7 -250 81.2C-267.8 59.8 -285.4 29.9 -302.9 0L0 0Z" fill="#a1c4c5"></path><path d="M0 227.2C-12.2 191.1 -24.3 155 -50.1 154.1C-75.8 153.2 -115.1 187.5 -133.5 183.8C-151.9 180.1 -149.4 138.4 -155 112.6C-160.5 86.8 -174.1 77 -187.5 60.9C-200.9 44.8 -214 22.4 -227.2 0L0 0Z" fill="#86b3b5"></path><path d="M0 151.5C-8.1 127.4 -16.2 103.3 -33.4 102.7C-50.5 102.1 -76.7 125 -89 122.5C-101.3 120.1 -99.6 92.2 -103.3 75.1C-107 57.9 -116.1 51.4 -125 40.6C-133.9 29.9 -142.7 14.9 -151.5 0L0 0Z" fill="#6aa3a6"></path><path d="M0 75.7C-4.1 63.7 -8.1 51.7 -16.7 51.4C-25.3 51.1 -38.4 62.5 -44.5 61.3C-50.6 60 -49.8 46.1 -51.7 37.5C-53.5 28.9 -58 25.7 -62.5 20.3C-67 14.9 -71.3 7.5 -75.7 0L0 0Z" fill="#5c9b9e"></path></g><g transform="translate(0, 1024)"><path d="M0 -530.1C39.9 -470.3 79.8 -410.6 123.3 -379.5C166.8 -348.4 213.9 -345.9 229.2 -315.5C244.6 -285.1 228.3 -226.7 279.9 -203.4C331.5 -180.1 451.1 -191.9 504.1 -163.8C557.2 -135.8 543.6 -67.9 530.1 0L0 0Z" fill="#f1f6f7"></path><path d="M0 -454.4C34.2 -403.1 68.4 -351.9 105.7 -325.3C143 -298.6 183.3 -296.5 196.5 -270.4C209.7 -244.4 195.7 -194.3 239.9 -174.3C284.2 -154.3 386.7 -164.4 432.1 -140.4C477.6 -116.4 466 -58.2 454.4 0L0 0Z" fill="#d6e5e6"></path><path d="M0 -378.6C28.5 -335.9 57 -293.3 88.1 -271.1C119.1 -248.8 152.8 -247.1 163.7 -225.4C174.7 -203.6 163.1 -161.9 199.9 -145.3C236.8 -128.6 322.2 -137 360.1 -117C398 -97 388.3 -48.5 378.6 0L0 0Z" fill="#bcd5d6"></path><path d="M0 -302.9C22.8 -268.8 45.6 -234.6 70.5 -216.8C95.3 -199.1 122.2 -197.7 131 -180.3C139.8 -162.9 130.5 -129.5 160 -116.2C189.5 -102.9 257.8 -109.6 288.1 -93.6C318.4 -77.6 310.6 -38.8 302.9 0L0 0Z" fill="#a1c4c5"></path><path d="M0 -227.2C17.1 -201.6 34.2 -176 52.8 -162.6C71.5 -149.3 91.7 -148.3 98.2 -135.2C104.8 -122.2 97.8 -97.2 120 -87.2C142.1 -77.2 193.3 -82.2 216.1 -70.2C238.8 -58.2 233 -29.1 227.2 0L0 0Z" fill="#86b3b5"></path><path d="M0 -151.5C11.4 -134.4 22.8 -117.3 35.2 -108.4C47.7 -99.5 61.1 -98.8 65.5 -90.1C69.9 -81.5 65.2 -64.8 80 -58.1C94.7 -51.4 128.9 -54.8 144 -46.8C159.2 -38.8 155.3 -19.4 151.5 0L0 0Z" fill="#6aa3a6"></path><path d="M0 -75.7C5.7 -67.2 11.4 -58.7 17.6 -54.2C23.8 -49.8 30.6 -49.4 32.7 -45.1C34.9 -40.7 32.6 -32.4 40 -29.1C47.4 -25.7 64.4 -27.4 72 -23.4C79.6 -19.4 77.7 -9.7 75.7 0L0 0Z" fill="#5c9b9e"></path></g></svg>