<svg id="visual" viewBox="0 0 1440 1024" width="1440" height="1024" xmlns="http://www.w3.org/2000/svg" xmlns:xlink="http://www.w3.org/1999/xlink" version="1.1"><rect x="0" y="0" width="1440" height="1024" fill="#ffffff"></rect><path d="M0 662L26.7 652.8C53.3 643.7 106.7 625.3 160 648.7C213.3 672 266.7 737 320 752.5C373.3 768 426.7 734 480 717.7C533.3 701.3 586.7 702.7 640 719C693.3 735.3 746.7 766.7 800 775.5C853.3 784.3 906.7 770.7 960 768.8C1013.3 767 1066.7 777 1120 752.8C1173.3 728.7 1226.7 670.3 1280 657.5C1333.3 644.7 1386.7 677.3 1413.3 693.7L1440 710L1440 1025L1413.3 1025C1386.7 1025 1333.3 1025 1280 1025C1226.7 1025 1173.3 1025 1120 1025C1066.7 1025 1013.3 1025 960 1025C906.7 1025 853.3 1025 800 1025C746.7 1025 693.3 1025 640 1025C586.7 1025 533.3 1025 480 1025C426.7 1025 373.3 1025 320 1025C266.7 1025 213.3 1025 160 1025C106.7 1025 53.3 1025 26.7 1025L0 1025Z" fill="#5c779e"></path><path d="M0 617L26.7 642.8C53.3 668.7 106.7 720.3 160 739C213.3 757.7 266.7 743.3 320 731C373.3 718.7 426.7 708.3 480 726.2C533.3 744 586.7 790 640 805.8C693.3 821.7 746.7 807.3 800 797C853.3 786.7 906.7 780.3 960 751.8C1013.3 723.3 1066.7 672.7 1120 664.3C1173.3 656 1226.7 690 1280 714.2C1333.3 738.3 1386.7 752.7 1413.3 759.8L1440 767L1440 1025L1413.3 1025C1386.7 1025 1333.3 1025 1280 1025C1226.7 1025 1173.3 1025 1120 1025C1066.7 1025 1013.3 1025 960 1025C906.7 1025 853.3 1025 800 1025C746.7 1025 693.3 1025 640 1025C586.7 1025 533.3 1025 480 1025C426.7 1025 373.3 1025 320 1025C266.7 1025 213.3 1025 160 1025C106.7 1025 53.3 1025 26.7 1025L0 1025Z" fill="#567da1"></path><path d="M0 794L26.7 778.7C53.3 763.3 106.7 732.7 160 713.7C213.3 694.7 266.7 687.3 320 713.5C373.3 739.7 426.7 799.3 480 809.5C533.3 819.7 586.7 780.3 640 771C693.3 761.7 746.7 782.3 800 787.3C853.3 792.3 906.7 781.7 960 762.5C1013.3 743.3 1066.7 715.7 1120 726.3C1173.3 737 1226.7 786 1280 808.8C1333.3 831.7 1386.7 828.3 1413.3 826.7L1440 825L1440 1025L1413.3 1025C1386.7 1025 1333.3 1025 1280 1025C1226.7 1025 1173.3 1025 1120 1025C1066.7 1025 1013.3 1025 960 1025C906.7 1025 853.3 1025 800 1025C746.7 1025 693.3 1025 640 1025C586.7 1025 533.3 1025 480 1025C426.7 1025 373.3 1025 320 1025C266.7 1025 213.3 1025 160 1025C106.7 1025 53.3 1025 26.7 1025L0 1025Z" fill="#5283a3"></path><path d="M0 785L26.7 790.8C53.3 796.7 106.7 808.3 160 820C213.3 831.7 266.7 843.3 320 834.2C373.3 825 426.7 795 480 792.5C533.3 790 586.7 815 640 822.2C693.3 829.3 746.7 818.7 800 807.3C853.3 796 906.7 784 960 795.2C1013.3 806.3 1066.7 840.7 1120 833.7C1173.3 826.7 1226.7 778.3 1280 756.5C1333.3 734.7 1386.7 739.3 1413.3 741.7L1440 744L1440 1025L1413.3 1025C1386.7 1025 1333.3 1025 1280 1025C1226.7 1025 1173.3 1025 1120 1025C1066.7 1025 1013.3 1025 960 1025C906.7 1025 853.3 1025 800 1025C746.7 1025 693.3 1025 640 1025C586.7 1025 533.3 1025 480 1025C426.7 1025 373.3 1025 320 1025C266.7 1025 213.3 1025 160 1025C106.7 1025 53.3 1025 26.7 1025L0 1025Z" fill="#4f88a3"></path><path d="M0 824L26.7 818.7C53.3 813.3 106.7 802.7 160 806.3C213.3 810 266.7 828 320 844.2C373.3 860.3 426.7 874.7 480 883.5C533.3 892.3 586.7 895.7 640 877.2C693.3 858.7 746.7 818.3 800 800C853.3 781.7 906.7 785.3 960 791.5C1013.3 797.7 1066.7 806.3 1120 817.2C1173.3 828 1226.7 841 1280 836C1333.3 831 1386.7 808 1413.3 796.5L1440 785L1440 1025L1413.3 1025C1386.7 1025 1333.3 1025 1280 1025C1226.7 1025 1173.3 1025 1120 1025C1066.7 1025 1013.3 1025 960 1025C906.7 1025 853.3 1025 800 1025C746.7 1025 693.3 1025 640 1025C586.7 1025 533.3 1025 480 1025C426.7 1025 373.3 1025 320 1025C266.7 1025 213.3 1025 160 1025C106.7 1025 53.3 1025 26.7 1025L0 1025Z" fill="#4f8da3"></path><path d="M0 947L26.7 940.2C53.3 933.3 106.7 919.7 160 919.2C213.3 918.7 266.7 931.3 320 931.3C373.3 931.3 426.7 918.7 480 908.2C533.3 897.7 586.7 889.3 640 885.2C693.3 881 746.7 881 800 872.2C853.3 863.3 906.7 845.7 960 841.5C1013.3 837.3 1066.7 846.7 1120 846.2C1173.3 845.7 1226.7 835.3 1280 829.8C1333.3 824.3 1386.7 823.7 1413.3 823.3L1440 823L1440 1025L1413.3 1025C1386.7 1025 1333.3 1025 1280 1025C1226.7 1025 1173.3 1025 1120 1025C1066.7 1025 1013.3 1025 960 1025C906.7 1025 853.3 1025 800 1025C746.7 1025 693.3 1025 640 1025C586.7 1025 533.3 1025 480 1025C426.7 1025 373.3 1025 320 1025C266.7 1025 213.3 1025 160 1025C106.7 1025 53.3 1025 26.7 1025L0 1025Z" fill="#5292a2"></path><path d="M0 920L26.7 920.3C53.3 920.7 106.7 921.3 160 914.8C213.3 908.3 266.7 894.7 320 891.3C373.3 888 426.7 895 480 897.7C533.3 900.3 586.7 898.7 640 900.2C693.3 901.7 746.7 906.3 800 915.3C853.3 924.3 906.7 937.7 960 933C1013.3 928.3 1066.7 905.7 1120 902.8C1173.3 900 1226.7 917 1280 928.8C1333.3 940.7 1386.7 947.3 1413.3 950.7L1440 954L1440 1025L1413.3 1025C1386.7 1025 1333.3 1025 1280 1025C1226.7 1025 1173.3 1025 1120 1025C1066.7 1025 1013.3 1025 960 1025C906.7 1025 853.3 1025 800 1025C746.7 1025 693.3 1025 640 1025C586.7 1025 533.3 1025 480 1025C426.7 1025 373.3 1025 320 1025C266.7 1025 213.3 1025 160 1025C106.7 1025 53.3 1025 26.7 1025L0 1025Z" fill="#5697a0"></path><path d="M0 940L26.7 950.3C53.3 960.7 106.7 981.3 160 992C213.3 1002.7 266.7 1003.3 320 998C373.3 992.7 426.7 981.3 480 976.3C533.3 971.3 586.7 972.7 640 975.5C693.3 978.3 746.7 982.7 800 987.7C853.3 992.7 906.7 998.3 960 993.3C1013.3 988.3 1066.7 972.7 1120 964.5C1173.3 956.3 1226.7 955.7 1280 958C1333.3 960.3 1386.7 965.7 1413.3 968.3L1440 971L1440 1025L1413.3 1025C1386.7 1025 1333.3 1025 1280 1025C1226.7 1025 1173.3 1025 1120 1025C1066.7 1025 1013.3 1025 960 1025C906.7 1025 853.3 1025 800 1025C746.7 1025 693.3 1025 640 1025C586.7 1025 533.3 1025 480 1025C426.7 1025 373.3 1025 320 1025C266.7 1025 213.3 1025 160 1025C106.7 1025 53.3 1025 26.7 1025L0 1025Z" fill="#5c9b9e"></path></svg>